<svg id="Layer_1" data-name="Layer 1" xmlns="http://www.w3.org/2000/svg" viewBox="0 0 1600.42 269.8">
    <defs>
        <style>.cls-1{fill:#fff;}</style>
    </defs>
    <title>logo</title>
    <path class="cls-1"
          d="M-15.43-377.31v-1.15C-15.43-388-1-391.38-1-407.34V-604.18c0-16-14.44-19.38-14.44-28.88v-1.52c0-3.8,3-6.08,8.36-6.08H64c5.32,0,8.74,2.28,8.74,6.08v1.52c0,9.5-16,12.92-16,28.88v84.36H173.06v-84.36c0-16-14.44-19.38-14.44-28.88v-1.52c0-3.8,3-6.08,8.36-6.08H238c5.32,0,8.74,2.28,8.74,6.08v1.52c0,9.5-16.34,12.92-16.34,28.88v196.84c0,16,16.34,19.38,16.34,28.88v1.15c0,4.18-3.42,6.46-8.74,6.46H167c-5.32,0-8.36-2.28-8.36-6.46v-1.15c0-9.5,14.44-12.92,14.44-28.88v-87.4H56.77l-.38,87.4c0,16,16.34,19.38,16.34,28.88v1.15c0,4.18-3.42,6.46-8.74,6.46H-7.07C-12.39-370.85-15.43-373.13-15.43-377.31Z"
          transform="translate(15.43 640.66)"/>
    <path class="cls-1"
          d="M526.45-378.46v1.15c0,4.18-3.42,6.46-8.36,6.46H434.87c-4.94,0-8.36-2.28-8.36-6.46v-1.15c0-9.5,21.28-12.92,15.2-28.88l-11.4-30.4h-106l-11,30.4c-6.08,16,15.2,19.38,15.2,28.88v1.15c0,4.18-3,6.46-8.74,6.46H270c-4.94,0-8.36-2.28-8.36-6.46v-1.15c0-9.5,13.68-10.64,20.52-28.88l75.62-194.18c5.32-14.06-13.3-23.56-13.3-31.54v-1.52c0-3.42,3-6.08,7.6-6.08h39.52c11.4,0,18.24,4.94,23.18,16.34l90.82,217C513.15-389.48,526.45-388,526.45-378.46Zm-105.26-84L376.73-580.62,333.41-462.44Z"
          transform="translate(15.43 640.66)"/>
    <path class="cls-1"
          d="M771.93-446.86c0,45.6-41.8,76-118.56,76h-106c-5.32,0-8.36-2.28-8.36-6.46v-1.52c0-9.13,14.44-12.55,14.44-28.51V-604.18c0-16-14.44-19.38-14.44-28.88v-1.52c0-3.8,3-6.08,8.36-6.08h98.8c66.13,0,99.57,29.64,99.57,68,0,28.88-18.62,50.16-47.12,56.62C744.19-509.94,771.93-483.34,771.93-446.86ZM610.42-543c0,11,7.6,18.24,19,18.24H656c23.93,0,39.51-16.34,39.51-39.14,0-34.2-20.13-53.58-51.29-53.58H626.38c-8.74,0-16,3.8-16,17.1ZM712.27-438.12c0-30.4-25.84-64.22-75.25-64.22h-26.6v80.94c0,15.58,9.88,27.36,24.7,27.36h24.71C694.41-394,712.27-410.38,712.27-438.12Z"
          transform="translate(15.43 640.66)"/>
    <path class="cls-1"
          d="M794-378.46c0-9.12,14.44-12.54,14.44-28.88V-604.18c0-16-14.44-19.38-14.44-28.88v-1.52c0-3.8,3-6.08,8.36-6.08h71.06c5,0,8.37,2.28,8.37,6.08v1.52c0,9.5-16,12.92-16,28.88v196.84c0,16.34,16,19.76,16,28.88v1.15c0,4.18-3.42,6.46-8.37,6.46H802.32c-5.32,0-8.36-2.28-8.36-6.46Z"
          transform="translate(15.43 640.66)"/>
    <path class="cls-1"
          d="M971-377.31v-1.15c0-9.5,15.2-12.92,15.2-28.88V-616h-30.4c-23.56,0-27.36,44.08-42.94,44.08h-5.32c-5.7,0-9.12-3.42-8-9.88L906.44-630c1.14-7.6,4.18-10.64,12.16-10.64h192.66c7.6,0,11,3,12.16,10.64l8,48.64c1.14,6.08-2.28,9.5-7.6,9.5h-5.7c-15.58,0-20.52-44.08-44.08-44.08h-30.78v208.62c0,16,16,19.38,16,28.88v1.15c0,4.18-3,6.46-8.74,6.46H979.4C974.08-370.85,971-373.13,971-377.31Z"
          transform="translate(15.43 640.66)"/>
    <path class="cls-1"
          d="M1367.38-378.46v1.15c0,4.18-3.42,6.46-8.36,6.46H1275.8c-4.94,0-8.36-2.28-8.36-6.46v-1.15c0-9.5,21.28-12.92,15.2-28.88l-11.4-30.4h-106l-11,30.4c-6.08,16,15.2,19.38,15.2,28.88v1.15c0,4.18-3,6.46-8.74,6.46h-49.78c-4.94,0-8.36-2.28-8.36-6.46v-1.15c0-9.5,13.68-10.64,20.52-28.88l75.62-194.18c5.32-14.06-13.3-23.56-13.3-31.54v-1.52c0-3.42,3-6.08,7.6-6.08h39.52c11.4,0,18.24,4.94,23.18,16.34l90.82,217C1354.08-389.48,1367.38-388,1367.38-378.46Zm-105.26-84-44.46-118.18-43.32,118.18Z"
          transform="translate(15.43 640.66)"/>
    <path class="cls-1"
          d="M1379.91-377.31v-1.15c0-9.5,14.44-12.92,14.44-28.88V-604.18c0-16.34-14.44-19-14.44-28.88v-1.52c0-3.8,3-6.08,8.36-6.08h71.44c5.33,0,9.12,2.28,9.12,6.08v1.52c0,9.88-16.33,12.54-16.33,28.88v188.86c0,11.4,4.94,21.28,16,21.28h54.72c28.5,0,34.2-49.4,50.54-49.4h4.56c4.94,0,7.6,3,6.46,8.36l-9.88,53.2c-1.52,7.22-4.18,11-11.78,11H1388.27C1383-370.85,1379.91-373.52,1379.91-377.31Z"
          transform="translate(15.43 640.66)"/>
</svg>